# xmcd
#
# Track frame offsets:
# 150
# 12902
# 27343
# 39862
# 50810
# 62718
# 74520
# 86214
# 99911
# 111865
# 124208
# 136370
# 150981
# 162068
# 172157
# 182112
# 193230
# 206078
# 220776
# 233191
# 246677
# 259471
# 271173
# 284422
# 297485
# 305561
# 317166
# 331014
#
# Disc length: 4553 seconds
#
# Revision: 1
# Processed by: cddbd v1.5.2PL0 Copyright (c) Steve Scherf et al.
# Submitted via: Axialis_AX_CDPlayer 2.6
#
DISCID=b211c71c
DTITLE=Charlie Rich - Complete HI Recordings Of Charlie Rich (w/ complete tr
DTITLE=acklisting)
DYEAR=1966
DGENRE=Country Soul
TTITLE0=When Something Is Wrong With My Baby
TTITLE1=Don't Tear Me Down
TTITLE2=Pass On By
TTITLE3=Love Is After Me
TTITLE4=I'll Shed No Tears
TTITLE5=Can't Get Right
TTITLE6=To Fool A Fool
TTITLE7=Hurry Up Freight Train
TTITLE8=Renée
TTITLE9=Big Time Operator
TTITLE10=Who Will The Next Fool Be
TTITLE11=Motels, Hotels
TTITLE12=Only Me
TTITLE13=Don't Come Knocking On My Door
TTITLE14=Any Time
TTITLE15=Only Me (undubbed)
TTITLE16=My Heart Would Know
TTITLE17=Take This Chains From Heart
TTITLE18=Half As Much
TTITLE19=You Win Again
TTITLE20=I Can't Help It
TTITLE21=Hey, Good Lookin'
TTITLE22=Your Cheatin' Heart
TTITLE23=Cold, Cold Heart
TTITLE24=Nobody's Lonesome For Me
TTITLE25=I'm So Lonesome I Could Cry
TTITLE26=Wedding Bells
TTITLE27=They'll Never take Her Love From Me
EXTD=
EXTT0=
EXTT1=
EXTT2=
EXTT3=
EXTT4=
EXTT5=
EXTT6=
EXTT7=
EXTT8=
EXTT9=
EXTT10=
EXTT11=
EXTT12=
EXTT13=
EXTT14=
EXTT15=
EXTT16=
EXTT17=
EXTT18=
EXTT19=
EXTT20=
EXTT21=
EXTT22=
EXTT23=
EXTT24=
EXTT25=
EXTT26=
EXTT27=
PLAYORDER=
